# Blender v2.65 (sub 0) OBJ File: 'Orb.blend'
# www.blender.org
v 0.300000 -0.700000 -0.300000
v 0.700000 0.300000 0.300000
v 0.700000 0.300000 -0.300000
v 0.700000 -0.300000 0.300000
v 0.700000 -0.300000 -0.300000
v 0.300000 0.700000 -0.300000
v 0.300000 0.700000 0.300000
v -0.300000 0.700000 -0.300000
v -0.300000 0.700000 0.300000
v 0.300000 -0.700000 0.300000
v -0.300000 -0.700000 -0.300000
v -0.300000 -0.700000 0.300000
v -0.700000 0.300000 0.300000
v -0.700000 0.300000 -0.300000
v -0.700000 -0.300000 0.300000
v -0.700000 -0.300000 -0.300000
v 0.300000 -0.300000 -0.700000
v -0.300000 -0.300000 -0.700000
v 0.300000 0.300000 -0.700000
v -0.300000 0.300000 -0.700000
v 0.300000 -0.300000 0.700000
v -0.300000 -0.300000 0.700000
v 0.300000 0.300000 0.700000
v -0.300000 0.300000 0.700000
vt 0.500000 0.714286
vt 0.375000 0.714286
vt 0.375000 0.285714
vt 0.500000 0.285714
vt 0.250000 0.285714
vt 0.250000 0.714286
vt 0.125000 0.714286
vt 0.125000 0.285714
vt 0.875000 0.714286
vt 0.875000 0.285714
vt 1.000000 0.285714
vt 1.000000 0.714286
vt 0.625000 0.285714
vt 0.750000 0.285714
vt 0.750000 0.714286
vt 0.625000 0.714286
vt 0.000000 0.285714
vt 0.000000 0.714286
vt 0.750000 0.000000
vt 0.500000 0.000000
vt 0.250000 0.000000
vt 1.000000 0.000000
vt 0.000000 0.000000
vt 0.250000 1.000000
vt 0.000000 1.000000
vt 0.750000 1.000000
vt 1.000000 1.000000
vt 0.500000 1.000000
vn 0.000000 -0.000000 1.000000
vn -1.000000 -0.000000 -0.000000
vn -0.000000 0.000000 -1.000000
vn 1.000000 0.000000 0.000000
vn 0.707107 -0.000000 0.707107
vn -0.707107 0.000000 -0.707107
vn -0.707107 -0.000000 0.707107
vn 0.707107 0.000000 -0.707107
vn 0.000000 -1.000000 0.000000
vn -0.577350 -0.577350 -0.577350
vn -0.577350 0.577350 0.577350
vn 0.577350 -0.577350 -0.577350
vn -0.577350 0.577350 -0.577350
vn 0.000000 1.000000 0.000000
vn 0.577350 -0.577350 0.577350
vn 0.577350 0.577350 -0.577350
vn -0.577350 -0.577350 0.577350
vn 0.577350 0.577350 0.577350
vn 0.000000 0.707107 0.707107
vn 0.707107 0.707107 0.000000
vn 0.000000 0.707107 -0.707107
vn -0.707107 0.707107 0.000000
vn 0.707107 -0.707107 0.000000
vn -0.000000 -0.707107 -0.707107
vn -0.707107 -0.707107 -0.000000
vn 0.000000 -0.707107 0.707107
s off
f 23/1/1 24/2/1 22/3/1
f 23/1/1 22/3/1 21/4/1
f 15/5/2 13/6/2 14/7/2
f 15/5/2 14/7/2 16/8/2
f 19/9/3 17/10/3 18/11/3
f 19/9/3 18/11/3 20/12/3
f 4/13/4 5/14/4 3/15/4
f 4/13/4 3/15/4 2/16/4
f 2/16/5 23/1/5 21/4/5
f 2/16/5 21/4/5 4/13/5
f 18/17/6 16/8/6 14/7/6
f 18/17/6 14/7/6 20/18/6
f 22/3/7 24/2/7 13/6/7
f 22/3/7 13/6/7 15/5/7
f 17/10/8 19/9/8 3/15/8
f 17/10/8 3/15/8 5/14/8
f 1/19/9 10/20/9 12/21/9
f 1/19/9 12/21/9 11/22/9
f 11/23/10 16/8/10 18/17/10
f 9/24/11 13/6/11 24/2/11
f 5/14/12 1/19/12 17/10/12
f 20/18/13 14/7/13 8/25/13
f 6/26/14 8/27/14 9/24/14
f 6/26/14 9/24/14 7/28/14
f 4/13/15 21/4/15 10/20/15
f 6/26/16 3/15/16 19/9/16
f 12/21/17 22/3/17 15/5/17
f 7/28/18 23/1/18 2/16/18
f 23/1/19 7/28/19 9/24/19
f 23/1/19 9/24/19 24/2/19
f 3/15/20 6/26/20 7/28/20
f 3/15/20 7/28/20 2/16/20
f 6/26/21 19/9/21 20/12/21
f 6/26/21 20/12/21 8/27/21
f 13/6/22 9/24/22 8/25/22
f 13/6/22 8/25/22 14/7/22
f 1/19/23 5/14/23 4/13/23
f 1/19/23 4/13/23 10/20/23
f 1/19/24 11/22/24 18/11/24
f 1/19/24 18/11/24 17/10/24
f 11/23/25 12/21/25 15/5/25
f 11/23/25 15/5/25 16/8/25
f 22/3/26 12/21/26 10/20/26
f 22/3/26 10/20/26 21/4/26
